<svg xmlns="http://www.w3.org/2000/svg" width="96" height="96" viewBox="0 0 96 96" role="img" aria-label="Codex">
  <defs>
    <linearGradient id="card" x1="18" y1="10" x2="84" y2="88" gradientUnits="userSpaceOnUse">
      <stop offset="0" stop-color="#ffffff"/>
      <stop offset="1" stop-color="#eef2ff"/>
    </linearGradient>
    <linearGradient id="cloud" x1="25" y1="27" x2="75" y2="78" gradientUnits="userSpaceOnUse">
      <stop offset="0" stop-color="#b89cff"/>
      <stop offset=".46" stop-color="#5d82ff"/>
      <stop offset="1" stop-color="#3028ff"/>
    </linearGradient>
    <filter id="soft" x="-20%" y="-20%" width="140%" height="145%">
      <feDropShadow dx="0" dy="6" stdDeviation="6" flood-color="#4f46e5" flood-opacity=".22"/>
    </filter>
  </defs>
  <rect x="4" y="4" width="88" height="88" rx="24" fill="url(#card)"/>
  <path filter="url(#soft)" fill="url(#cloud)" d="M31 70c-8.5 0-15.4-6.8-15.4-15.2 0-6.8 4.6-12.9 11-14.7C30 31 38.8 25 48.8 25c7.8 0 15 3.9 19.2 10.2 7 .6 12.4 6.4 12.4 13.6 0 4.3-2 8.2-5.1 10.7.1.7.2 1.5.2 2.2 0 6.8-5.6 12.3-12.4 12.3H31z"/>
  <path d="M37 39l9 12-9 12" fill="none" stroke="#fff" stroke-width="7" stroke-linecap="round" stroke-linejoin="round"/>
  <path d="M55 62h17" fill="none" stroke="#fff" stroke-width="7" stroke-linecap="round"/>
</svg>
